<svg xmlns="http://www.w3.org/2000/svg" width="150" height="50" viewBox="0,0,150,50"><path fill="#222" d="M25.62 34.92L25.62 34.92L25.62 34.92Q21.51 34.43 19.68 32.98L19.62 32.92L19.70 33.00Q17.79 31.47 17.37 28.47L17.33 28.42L17.30 28.39Q17.31 28.05 16.96 23.30L17.04 23.37L17.01 23.34Q16.98 22.09 16.90 20.84L16.91 20.85L16.88 20.82Q16.72 15.78 18.93 14.03L18.97 14.07L19.04 14.14Q21.70 12.04 29.46 11.36L29.51 11.40L29.42 11.31Q30.86 11.27 32.50 11.30L32.36 11.16L32.33 11.14Q32.37 11.18 35.34 11.18L35.28 11.12L35.46 11.30Q36.12 11.12 37.83 11.27L37.82 11.26L38.00 11.44Q37.52 12.40 36.49 15.49L36.47 15.47L36.48 15.48Q34.37 14.24 31.36 14.24L31.27 14.15L31.23 14.11Q30.47 14.11 29.67 14.19L29.65 14.17L29.66 14.18Q24.63 14.71 22.12 16.69L22.22 16.79L22.21 16.78Q20.07 18.25 19.91 21.60L19.95 21.64L20.03 21.72Q19.91 22.24 19.95 23.50L19.86 23.41L19.91 23.46Q20.01 28.28 22.41 30.38L22.53 30.50L22.36 30.33Q24.71 32.45 29.69 32.75L29.66 32.72L29.66 32.71Q32.65 32.74 35.66 30.95L35.69 30.98L35.78 31.08Q36.45 33.87 37.06 35.24L36.87 35.06L36.99 35.18Q34.79 35.34 33.16 35.30L33.26 35.40L33.26 35.41Q28.69 35.25 25.57 34.87ZM40.71 38.63L40.71 38.63L40.73 38.64Q38.87 35.57 38.19 32.98L38.30 33.10L38.33 33.13Q37.86 33.34 36.87 33.72L36.78 33.63L36.80 33.66Q36.44 32.84 36.25 32.00L36.23 31.98L35.99 30.41L35.92 30.34Q32.64 32.39 29.52 32.28L29.64 32.40L29.55 32.30Q25.19 32.02 22.87 30.26L22.95 30.35L22.86 30.26Q21.80 28.51 21.87 25.58L21.82 25.53L21.95 25.65Q22.00 21.06 24.47 18.93L24.51 18.96L24.48 18.93Q26.70 17.12 31.39 16.51L31.37 16.50L31.31 16.43Q32.20 16.42 32.93 16.42L32.78 16.27L32.80 16.29Q35.64 16.35 37.73 17.87L37.69 17.83L37.78 17.92Q38.31 15.82 39.52 12.58L39.50 12.56L39.51 12.57Q39.15 12.47 38.59 12.41L38.69 12.52L38.60 12.42Q38.11 12.42 37.84 12.42L37.77 12.35L37.87 12.46Q37.92 11.78 38.38 10.79L38.45 10.87L38.44 10.85Q38.17 10.81 35.68 10.73L35.81 10.87L35.81 10.87Q33.18 10.65 32.53 10.69L32.63 10.79L32.56 10.72Q22.00 11.02 18.54 13.60L18.63 13.69L18.60 13.66Q16.51 15.42 16.51 19.34L16.57 19.40L16.66 19.49Q16.66 20.60 16.78 23.30L16.77 23.29L16.69 23.21Q16.88 26.83 17.11 28.55L17.08 28.51L17.03 28.47Q17.51 31.68 19.11 33.21L18.95 33.05L19.07 33.17Q19.46 33.75 20.72 34.89L20.78 34.95L20.73 34.91Q24.06 36.75 29.31 37.51L29.31 37.50L29.29 37.49Q35.77 38.48 40.76 38.68Z"/><path fill="#333" d="M85.64 35.24L85.54 35.14L85.54 35.15Q82.13 35.32 80.50 34.78L80.45 34.74L80.49 34.78Q78.49 34.11 78.18 30.72L78.24 30.78L79.65 29.67L79.64 29.67Q80.32 29.09 81.08 28.59L81.24 28.75L81.22 28.73Q80.96 30.64 82.56 31.86L82.41 31.72L82.55 31.85Q83.82 32.85 85.95 32.66L85.95 32.66L85.97 32.68Q90.25 32.17 90.06 28.63L90.17 28.74L90.21 28.77Q90.01 26.48 87.38 25.26L87.39 25.27L87.28 25.16Q84.45 24.12 82.09 22.90L82.10 22.91L82.12 22.93Q79.55 21.58 78.56 16.90L78.66 16.99L78.50 16.84Q78.41 16.41 78.30 15.65L78.41 15.76L78.42 15.77Q78.33 15.00 78.41 14.43L78.43 14.45L78.45 14.46Q78.49 12.75 79.74 12.29L79.84 12.39L79.74 12.29Q82.21 11.49 86.21 11.68L86.10 11.58L86.15 11.62Q87.97 11.73 88.77 11.80L88.73 11.76L88.81 11.85Q90.28 12.02 91.34 12.47L91.38 12.51L91.32 12.46Q93.49 12.99 93.72 15.46L93.60 15.34L93.58 15.32Q92.68 16.17 90.47 17.50L90.37 17.40L90.45 17.48Q90.01 14.45 85.63 14.45L85.71 14.53L85.67 14.49Q83.75 14.47 82.76 15.16L82.69 15.09L82.65 15.05Q81.61 15.68 81.83 17.47L81.73 17.36L81.87 17.50Q82.11 19.68 85.08 21.21L85.07 21.20L84.96 21.09Q85.53 21.36 90.03 23.00L89.95 22.92L90.03 23.00Q92.72 24.55 93.14 28.93L93.04 28.82L93.13 28.92Q93.13 29.07 93.21 30.33L93.13 30.25L93.13 30.25Q93.20 33.02 91.64 34.13L91.61 34.10L91.65 34.13Q89.85 35.15 85.66 35.27ZM88.00 37.68L87.91 37.59L88.01 37.70Q89.33 37.64 91.31 37.64L91.32 37.65L91.35 37.68Q93.39 37.63 94.65 37.21L94.73 37.29L94.62 37.18Q95.89 36.39 95.81 34.61L95.77 34.56L95.88 34.67Q95.83 33.67 95.45 31.62L95.53 31.70L95.46 31.62Q94.51 26.91 92.42 25.04L92.53 25.16L92.42 25.05Q91.75 23.58 90.42 22.86L90.32 22.76L84.93 20.61L85.05 20.73Q84.73 20.56 84.28 20.33L84.20 20.26L84.19 19.97L84.18 19.62L84.05 19.49Q84.02 18.21 85.17 17.60L85.00 17.44L85.15 17.58Q85.93 17.03 87.64 16.84L87.47 16.67L87.60 16.80Q88.72 16.66 89.86 17.12L89.80 17.06L89.88 17.14Q89.92 17.22 90.11 18.06L90.21 18.15L90.03 17.97Q90.26 17.86 90.76 17.63L90.88 17.76L90.89 17.77Q91.51 18.58 91.62 19.72L91.61 19.71L91.54 19.64Q91.70 19.69 95.36 17.10L95.32 17.05L95.31 17.05Q95.02 14.40 93.57 13.71L93.56 13.70L93.68 13.82Q93.05 12.51 91.61 11.98L91.67 12.04L91.59 11.96Q89.42 11.28 86.23 11.28L86.07 11.13L86.21 11.26Q81.29 11.26 79.43 11.94L79.43 11.94L79.39 11.90Q78.13 12.44 78.02 14.11L77.98 14.07L77.88 13.97Q77.97 14.63 78.39 16.84L78.39 16.84L78.37 16.82Q78.90 20.44 81.07 22.69L81.24 22.85L81.18 22.79Q81.88 24.41 83.39 25.09L83.38 25.09L83.51 25.22Q84.96 25.85 88.88 27.41L88.81 27.34L88.87 27.44L89.51 27.77L89.49 27.79L89.67 27.97Q89.66 28.22 89.70 28.57L89.72 28.59L89.86 28.73Q89.76 32.02 85.84 32.17L85.94 32.27L85.89 32.22Q84.69 32.20 83.39 31.82L83.40 31.82L83.49 31.92Q83.15 31.08 83.15 30.36L83.10 30.31L83.11 30.32Q83.19 30.13 83.23 29.87L83.22 29.86L83.24 29.87Q82.86 30.15 82.06 30.64L81.92 30.50L81.92 30.50Q81.43 29.40 81.58 28.03L81.71 28.16L81.67 28.11Q79.46 29.18 77.86 30.59L77.92 30.64L78.01 30.74Q77.96 31.45 78.04 32.48L77.96 32.40L77.99 32.43Q78.34 34.19 79.63 34.95L79.65 34.97L79.70 35.01Q80.92 36.84 83.47 37.22L83.37 37.13L83.52 37.28Q85.01 37.43 87.94 37.62Z"/><path fill="#222" d="M118.67 34.87L118.69 34.89L116.75 34.89L116.69 34.84Q115.68 34.78 114.73 34.89L114.87 35.02L114.87 35.02Q115.36 28.74 115.36 24.74L115.34 24.72L115.36 24.75Q111.50 18.18 103.85 9.50L103.78 9.43L103.83 9.49Q105.56 10.42 108.91 11.22L108.91 11.21L108.81 11.12Q113.94 16.77 116.94 21.99L116.95 21.99L117.04 22.09Q120.05 16.53 124.43 11.51L124.29 11.37L124.42 11.49Q126.74 11.00 129.26 10.20L129.26 10.21L129.34 10.29Q123.16 16.25 118.29 24.67L118.34 24.72L118.41 24.79Q118.31 31.73 118.62 34.81ZM127.77 12.29L130.39 9.36L130.52 9.48Q127.31 10.54 124.19 11.00L124.23 11.04L124.22 11.03Q120.06 15.81 117.24 20.92L117.22 20.89L117.22 20.90Q115.10 17.25 111.90 13.37L111.88 13.34L111.84 13.31Q111.65 13.38 111.15 13.30L111.05 13.20L111.16 13.32Q110.33 12.37 108.81 10.69L108.86 10.74L108.98 10.87Q105.58 10.10 102.61 8.54L102.52 8.44L102.47 8.39Q110.17 16.85 114.93 24.77L115.12 24.97L114.95 24.79Q114.91 31.19 114.30 35.34L114.40 35.43L114.37 35.41Q115.12 35.40 116.57 35.28L116.55 35.26L116.43 36.17L116.49 36.23Q116.44 36.64 116.36 37.17L116.44 37.24L116.40 37.20Q120.05 37.31 121.80 37.50L121.64 37.34L121.68 37.38Q120.46 32.74 120.35 26.76L120.40 26.81L120.26 26.68Q124.80 18.39 131.35 11.04L131.20 10.90L127.68 12.21Z"/><path d="M19 47 C82 31,65 43,148 36" stroke="#333" fill="none"/><path fill="#444" d="M49.57 36.09L49.64 36.15L49.55 36.06Q52.79 31.89 59.49 23.97L59.48 23.96L59.42 23.89Q53.47 24.07 49.70 22.70L49.87 22.87L49.84 22.84Q49.11 21.35 48.35 19.94L48.43 20.02L48.34 19.93Q52.37 21.37 56.82 21.41L56.84 21.43L57.00 21.58Q61.34 21.51 65.53 20.45L65.61 20.53L65.53 20.45Q65.07 21.06 64.81 21.59L64.87 21.65L64.78 21.57Q62.42 23.96 59.60 27.58L59.48 27.45L54.58 33.67L54.69 33.79Q56.79 33.45 59.04 33.52L59.09 33.58L59.14 33.63Q61.22 33.57 63.47 33.95L63.48 33.97L63.52 34.01Q63.73 34.67 64.45 36.69L64.38 36.62L64.37 36.61Q60.57 35.70 56.57 35.81L56.61 35.85L56.59 35.84Q52.69 36.01 49.04 37.19L49.07 37.22L48.99 37.14Q49.11 37.04 49.57 36.09ZM48.42 37.75L48.46 37.79L48.41 37.74Q49.24 37.47 50.84 37.05L50.86 37.08L50.93 37.14Q50.66 37.33 50.24 37.75L50.20 37.71L50.18 37.68Q49.89 38.20 49.29 39.34L49.40 39.46L49.45 39.50Q54.02 38.02 59.00 38.17L59.12 38.29L59.08 38.25Q64.05 38.42 68.62 40.29L68.53 40.20L68.59 40.26Q67.18 38.43 66.27 36.38L66.24 36.34L66.25 36.36Q65.48 36.05 64.41 35.82L64.32 35.72L64.39 35.79Q64.21 35.08 63.83 33.63L63.79 33.60L63.89 33.69Q62.26 33.28 58.68 33.17L58.68 33.16L58.73 33.21Q61.18 29.96 66.21 23.60L66.13 23.52L66.20 23.59Q66.45 22.85 67.13 21.52L67.03 21.42L64.69 22.12L64.76 22.19Q64.89 22.16 65.04 22.05L65.04 22.05L65.14 21.77L65.25 21.88Q65.73 20.84 66.30 19.89L66.31 19.89L66.30 19.89Q61.62 21.22 56.90 21.14L56.89 21.14L56.95 21.20Q52.06 21.02 47.56 19.19L47.66 19.29L47.56 19.19Q48.75 21.07 49.55 23.13L49.48 23.05L49.47 23.05Q50.33 23.37 51.40 23.64L51.54 23.78L51.38 23.62Q51.71 24.45 52.02 25.90L51.93 25.81L51.90 25.78Q53.47 26.02 56.79 26.17L56.96 26.34L56.92 26.30Q54.55 29.64 49.37 36.08L49.36 36.07L49.24 35.95Q49.04 36.58 48.47 37.80Z"/></svg>